<?xml version="1.0" encoding="UTF-8"?>
<svg xmlns="http://www.w3.org/2000/svg" xmlns:xlink="http://www.w3.org/1999/xlink" width="300pt" height="225pt" viewBox="0 0 300 225" version="1.1">
<g id="surface1">
<path style=" stroke:none;fill-rule:nonzero;fill:rgb(0%,0%,0%);fill-opacity:1;" d="M 62.367188 78.386719 C 60.335938 78.929688 58.464844 80.308594 57.273438 82.152344 C 55.511719 84.867188 55.480469 88.359375 57.179688 91.171875 C 57.464844 91.648438 63.144531 98.984375 69.792969 107.480469 C 76.445312 115.976562 81.886719 122.949219 81.886719 122.996094 C 81.886719 123.042969 78.222656 123.078125 73.730469 123.078125 C 64.273438 123.078125 64.875 123.171875 64.667969 121.535156 C 64.304688 118.566406 61.667969 116.898438 58.734375 117.773438 C 55.8125 118.628906 54.988281 122.550781 56.925781 126.316406 C 57.75 127.90625 59.828125 129.984375 61.367188 130.761719 C 63.460938 131.8125 63.429688 131.8125 74.269531 131.8125 C 81.917969 131.8125 84.203125 131.761719 84.824219 131.589844 C 86.1875 131.222656 87.316406 130.539062 88.488281 129.367188 C 91.25 126.601562 91.855469 122.980469 90.125 119.503906 C 89.839844 118.933594 84.824219 112.390625 77.316406 102.828125 L 64.984375 87.105469 L 73.144531 87.058594 C 80.109375 87.027344 81.363281 87.058594 81.664062 87.265625 C 81.902344 87.410156 82.171875 87.980469 82.523438 88.996094 C 83.347656 91.503906 84.285156 92.394531 86.265625 92.554688 C 87.679688 92.664062 88.726562 92.269531 89.742188 91.25 C 91.042969 89.949219 91.378906 88.441406 90.871094 86.058594 C 90.125 82.566406 86.824219 79.214844 83.300781 78.371094 C 81.824219 78.023438 63.683594 78.039062 62.367188 78.386719 Z M 62.367188 78.386719 "/>
<path style=" stroke:none;fill-rule:nonzero;fill:rgb(0%,0%,0%);fill-opacity:1;" d="M 185.105469 78.386719 C 184.167969 78.722656 183.230469 79.59375 182.753906 80.546875 L 182.34375 81.375 L 182.34375 95.460938 L 181.277344 94.632812 C 180.675781 94.171875 179.628906 93.539062 178.929688 93.203125 C 176.996094 92.300781 175.773438 92.109375 171.804688 92.109375 C 165.964844 92.109375 164.757812 92.539062 160.664062 96.015625 C 158.078125 98.207031 157.15625 99.542969 156.285156 102.273438 C 155.917969 103.464844 155.917969 103.496094 155.917969 111.878906 C 155.917969 120.171875 155.917969 120.3125 156.285156 121.550781 C 156.746094 123.125 157.617188 124.933594 158.316406 125.746094 C 159.539062 127.175781 162.980469 129.90625 164.550781 130.699219 C 166.457031 131.652344 167.503906 131.8125 171.710938 131.8125 C 174.898438 131.8125 175.644531 131.761719 176.660156 131.507812 C 178.121094 131.128906 179.46875 130.460938 181.105469 129.332031 L 182.3125 128.492188 L 182.738281 129.347656 C 184.324219 132.621094 188.929688 132.589844 190.546875 129.300781 L 190.992188 128.398438 L 190.992188 81.546875 L 190.546875 80.644531 C 189.800781 79.132812 188.5 78.277344 186.785156 78.199219 C 186.136719 78.164062 185.515625 78.230469 185.105469 78.386719 Z M 175.011719 101.144531 C 175.773438 101.367188 181.597656 106.289062 181.960938 107.019531 C 182.199219 107.511719 182.246094 108.117188 182.3125 111.5625 C 182.390625 116.246094 182.292969 116.882812 181.421875 117.707031 C 180.550781 118.519531 176.519531 121.789062 175.613281 122.394531 L 174.851562 122.917969 L 171.867188 122.917969 C 170.21875 122.917969 168.710938 122.855469 168.503906 122.773438 C 167.996094 122.570312 165.378906 120.34375 165.027344 119.789062 C 164.742188 119.375 164.726562 118.898438 164.726562 112.101562 C 164.726562 107.339844 164.789062 104.6875 164.902344 104.367188 C 165.09375 103.8125 167.566406 101.605469 168.410156 101.242188 C 169.027344 100.96875 174.152344 100.90625 175.011719 101.144531 Z M 175.011719 101.144531 "/>
<path style=" stroke:none;fill-rule:nonzero;fill:rgb(0%,0%,0%);fill-opacity:1;" d="M 117.484375 92.285156 C 114.992188 92.695312 112.546875 94.03125 110.261719 96.222656 C 108.375 98.03125 107.105469 99.859375 106.421875 101.765625 L 105.929688 103.144531 L 105.882812 111.421875 C 105.835938 118.390625 105.867188 119.867188 106.074219 120.871094 C 107.074219 125.632812 112.339844 130.621094 117.386719 131.589844 C 119.148438 131.921875 127.78125 131.90625 129.449219 131.558594 C 131.941406 131.050781 134.433594 129.667969 136.636719 127.585938 C 138.542969 125.777344 139.636719 124.1875 140.398438 122.109375 L 140.828125 120.933594 L 140.890625 112.59375 C 140.9375 103.703125 140.90625 103.019531 140.175781 101.222656 C 138.859375 97.890625 135.304688 94.460938 131.703125 93 C 129.78125 92.203125 128.828125 92.109375 123.355469 92.125 C 120.578125 92.140625 117.925781 92.203125 117.484375 92.285156 Z M 128.339844 101.160156 C 129.082031 101.496094 131.496094 103.367188 131.875 103.925781 C 132.082031 104.210938 132.113281 105.320312 132.164062 111.5 L 132.210938 118.742188 L 131.242188 119.628906 C 130.179688 120.632812 128.796875 121.488281 127.609375 121.902344 C 126.386719 122.347656 126.324219 122.21875 126.324219 119.597656 C 126.324219 117.726562 126.273438 117.375 126.003906 116.929688 L 125.6875 116.40625 L 126.132812 116.3125 C 128.148438 115.867188 128.765625 115.550781 129.609375 114.597656 C 130.417969 113.675781 130.765625 112.578125 130.765625 110.945312 C 130.765625 109.65625 130.449219 108.609375 129.894531 107.988281 C 129.734375 107.800781 129.703125 107.59375 129.8125 107.117188 C 129.941406 106.542969 129.796875 105.164062 129.558594 104.78125 C 129.402344 104.527344 128.402344 104.78125 127.355469 105.335938 C 126.433594 105.828125 126.371094 105.847656 125.527344 105.671875 C 124.417969 105.433594 122.6875 105.433594 121.5625 105.65625 C 120.71875 105.847656 120.65625 105.828125 119.738281 105.335938 C 119.210938 105.066406 118.53125 104.796875 118.214844 104.734375 C 117.65625 104.625 117.625 104.65625 117.433594 105.195312 C 117.339844 105.511719 117.277344 106.226562 117.292969 106.765625 C 117.339844 107.625 117.277344 107.863281 116.878906 108.53125 C 116.039062 109.960938 116.148438 112.546875 117.117188 114.089844 C 117.878906 115.277344 118.878906 115.867188 120.941406 116.3125 L 121.355469 116.40625 L 120.972656 117.183594 C 120.65625 117.867188 120.515625 117.996094 120.054688 118.089844 C 119.007812 118.28125 118.449219 118.058594 117.640625 117.105469 C 116.847656 116.183594 116.246094 115.769531 115.707031 115.769531 C 115.117188 115.769531 115.183594 116.105469 115.878906 116.773438 C 116.246094 117.136719 116.753906 117.804688 116.992188 118.265625 C 117.5625 119.34375 118.292969 119.742188 119.738281 119.742188 L 120.769531 119.742188 L 120.769531 120.742188 C 120.769531 122.363281 120.5 122.441406 118.417969 121.410156 C 117.433594 120.917969 116.65625 120.375 115.863281 119.628906 L 114.738281 118.550781 L 114.738281 111.5625 C 114.738281 103.449219 114.578125 104.210938 116.578125 102.589844 C 118.753906 100.84375 118.738281 100.84375 123.546875 100.84375 C 127.273438 100.84375 127.734375 100.875 128.339844 101.160156 Z M 128.339844 101.160156 "/>
<path style=" stroke:none;fill-rule:nonzero;fill:rgb(0%,0%,0%);fill-opacity:1;" d="M 215.652344 92.285156 C 214.730469 92.539062 213.589844 93.523438 213.082031 94.492188 C 212.667969 95.285156 212.636719 95.492188 212.683594 96.636719 C 212.734375 97.761719 212.796875 98.015625 213.257812 98.730469 C 213.8125 99.605469 214.652344 100.273438 215.621094 100.621094 C 216.097656 100.78125 217.714844 100.828125 223.046875 100.84375 C 229.523438 100.84375 229.902344 100.859375 230.378906 101.160156 C 231.253906 101.683594 231.378906 102.035156 231.492188 104.195312 L 231.585938 106.164062 L 223.761719 106.117188 C 214.84375 106.066406 214.351562 106.101562 212.035156 107.226562 C 210.941406 107.75 210.433594 108.132812 209.242188 109.324219 C 208.035156 110.515625 207.65625 111.007812 207.113281 112.117188 C 206.082031 114.246094 205.988281 114.851562 205.988281 118.949219 C 205.988281 122.980469 206.132812 123.886719 207.019531 125.695312 C 208.113281 127.886719 209.972656 129.699219 212.257812 130.792969 C 214.160156 131.714844 215.097656 131.8125 222.03125 131.8125 L 228.207031 131.8125 L 230.378906 130.476562 L 232.554688 129.144531 L 233.078125 129.875 C 234.046875 131.238281 235.488281 131.90625 237.109375 131.761719 C 239.042969 131.589844 240.742188 130 240.996094 128.125 C 241.125 127.207031 240.296875 102.796875 240.109375 101.445312 C 239.757812 99.128906 238.757812 97.160156 237.011719 95.363281 C 235.757812 94.078125 234.425781 93.238281 232.664062 92.617188 L 231.457031 92.1875 L 223.839844 92.15625 C 219.285156 92.140625 216 92.1875 215.652344 92.285156 Z M 230.679688 115.230469 C 231.410156 115.582031 231.824219 116.503906 231.886719 117.980469 L 231.933594 119.152344 L 228.839844 121.042969 L 225.746094 122.917969 L 220.875 122.886719 L 216.019531 122.839844 L 215.589844 122.441406 C 214.796875 121.710938 214.714844 121.363281 214.714844 118.914062 C 214.714844 116.328125 214.890625 115.769531 215.84375 115.261719 C 216.335938 114.992188 216.890625 114.976562 223.253906 114.976562 C 229.222656 114.976562 230.207031 115.007812 230.679688 115.230469 Z M 230.679688 115.230469 "/>
</g>
</svg>
