<?xml version="1.0" standalone="no"?>
<!DOCTYPE svg PUBLIC "-//W3C//DTD SVG 20010904//EN"
 "http://www.w3.org/TR/2001/REC-SVG-20010904/DTD/svg10.dtd">
<svg version="1.0" xmlns="http://www.w3.org/2000/svg"
 width="300.000000pt" height="94.000000pt" viewBox="0 0 300.000000 94.000000"
 preserveAspectRatio="xMidYMid meet">

<g transform="translate(0.000000,94.000000) scale(0.100000,-0.100000)"
fill="#000000" stroke="none">
<path d="M104 871 c-56 -34 -79 -116 -50 -173 12 -23 255 -340 364 -476 l35
-43 -134 3 c-125 3 -134 4 -137 23 -6 32 -43 65 -72 65 -15 0 -36 -10 -50 -25
-41 -43 -16 -127 54 -179 25 -19 41 -21 216 -21 187 0 189 0 215 25 54 51 68
106 40 161 -9 16 -89 123 -178 237 -89 114 -175 224 -191 245 l-28 37 130 0
130 0 12 -35 c20 -59 73 -73 117 -29 21 21 25 32 20 65 -3 22 -17 55 -32 74
-45 60 -64 65 -257 65 -152 0 -177 -2 -204 -19z"/>
<path d="M2051 864 c-18 -23 -21 -41 -21 -131 l0 -103 -40 20 c-54 27 -178 28
-235 0 -49 -23 -88 -58 -115 -102 -18 -29 -20 -50 -20 -186 0 -171 7 -199 61
-251 62 -57 109 -73 203 -70 68 3 90 8 115 26 l30 23 25 -25 c30 -30 69 -32
96 -5 19 19 20 33 20 409 l0 390 -22 15 c-34 24 -73 20 -97 -10z m-77 -380
l56 -46 0 -83 0 -83 -57 -46 c-50 -40 -64 -46 -105 -46 -35 0 -54 6 -77 26
l-31 26 0 123 0 123 31 26 c24 20 41 26 79 26 42 0 54 -5 104 -46z"/>
<path d="M965 651 c-44 -20 -110 -87 -125 -127 -6 -14 -10 -90 -10 -170 0
-164 9 -195 76 -254 57 -49 92 -60 199 -60 111 0 152 13 208 68 64 61 67 73
67 250 0 158 0 158 -29 205 -20 30 -48 56 -83 76 -50 29 -59 31 -158 31 -80 0
-114 -5 -145 -19z m241 -142 l34 -21 0 -123 0 -124 -29 -20 c-45 -32 -57 -27
-57 23 -1 39 2 45 23 51 33 8 57 64 43 100 -6 15 -10 38 -10 52 0 23 -3 24
-37 19 -53 -8 -114 -9 -138 -1 -18 5 -22 -1 -33 -48 -7 -30 -9 -63 -6 -73 11
-30 36 -54 56 -54 22 0 24 -18 3 -26 -8 -3 -26 4 -41 15 -15 12 -29 19 -32 17
-9 -10 40 -66 59 -66 10 0 19 -7 19 -15 0 -23 -25 -18 -59 11 l-31 26 0 113 0
114 33 25 c27 22 42 26 101 26 52 0 77 -5 102 -21z"/>
<path d="M2532 647 c-28 -29 -28 -57 -1 -91 20 -25 23 -26 138 -26 127 0 141
-5 141 -52 l0 -28 -132 0 c-152 0 -198 -14 -239 -71 -21 -30 -24 -44 -24 -134
0 -90 3 -104 24 -134 39 -54 89 -71 213 -71 89 0 113 3 139 19 32 20 33 20 57
0 33 -26 64 -24 91 5 l23 25 -7 218 c-7 228 -14 264 -58 311 -42 46 -68 52
-210 52 -127 0 -135 -1 -155 -23z m264 -345 c6 -4 14 -18 17 -32 6 -23 0 -29
-47 -58 -47 -28 -63 -32 -123 -32 -40 0 -74 5 -81 12 -16 16 -16 90 0 106 13
13 215 17 234 4z"/>
</g>
</svg>
