<?xml version="1.0" standalone="no"?>
<!DOCTYPE svg PUBLIC "-//W3C//DTD SVG 20010904//EN"
 "http://www.w3.org/TR/2001/REC-SVG-20010904/DTD/svg10.dtd">
<svg version="1.0" xmlns="http://www.w3.org/2000/svg"
 width="1890.000000pt" height="1417.000000pt" viewBox="0 0 1890.000000 1417.000000"
 preserveAspectRatio="xMidYMid meet">

<g transform="translate(0.000000,1417.000000) scale(0.100000,-0.100000)"
fill="#000000" stroke="none">
<path d="M3930 9234 c-128 -34 -246 -121 -321 -237 -111 -171 -113 -391 -6
-568 18 -30 376 -492 795 -1027 419 -535 762 -974 762 -977 0 -3 -231 -5 -514
-5 -596 0 -558 -6 -571 97 -23 187 -189 292 -374 237 -184 -54 -236 -301 -114
-538 52 -100 183 -231 280 -280 132 -66 130 -66 813 -66 482 0 626 3 665 14
86 23 157 66 231 140 174 174 212 402 103 621 -18 36 -334 448 -807 1050
l-777 990 514 3 c439 2 518 0 537 -13 15 -9 32 -45 54 -109 52 -158 111 -214
236 -224 89 -7 155 18 219 82 82 82 103 177 71 327 -47 220 -255 431 -477 484
-93 22 -1236 21 -1319 -1z"/>
<path d="M11664 9234 c-59 -21 -118 -76 -148 -136 l-26 -52 0 -443 0 -444 -67
52 c-38 29 -104 69 -148 90 -122 57 -199 69 -449 69 -368 0 -444 -27 -702
-246 -163 -138 -221 -222 -276 -394 -23 -75 -23 -77 -23 -605 0 -522 0 -531
23 -609 29 -99 84 -213 128 -264 77 -90 294 -262 393 -312 120 -60 186 -70
451 -70 201 0 248 3 312 19 92 24 177 66 280 137 l76 53 27 -54 c100 -206 390
-204 492 3 l28 57 0 1475 0 1475 -28 57 c-47 95 -129 149 -237 154 -41 2 -80
-2 -106 -12z m-636 -1433 c48 -14 415 -324 438 -370 15 -31 18 -69 22 -286 5
-295 -1 -335 -56 -387 -55 -51 -309 -257 -366 -295 l-48 -33 -188 0 c-104 0
-199 4 -212 9 -32 13 -197 153 -219 188 -18 26 -19 56 -19 484 0 300 4 467 11
487 12 35 168 174 221 197 39 17 362 21 416 6z"/>
<path d="M7403 8359 c-157 -26 -311 -110 -455 -248 -119 -114 -199 -229 -242
-349 l-31 -87 -3 -521 c-3 -439 -1 -532 12 -595 63 -300 395 -614 713 -675
111 -21 655 -20 760 2 157 32 314 119 453 250 120 114 189 214 237 345 l27 74
4 525 c3 560 1 603 -45 716 -83 210 -307 426 -534 518 -121 50 -181 56 -526
55 -175 -1 -342 -5 -370 -10z m684 -559 c47 -21 199 -139 223 -174 13 -18 15
-88 18 -477 l3 -456 -61 -56 c-67 -63 -154 -117 -229 -143 -77 -28 -81 -20
-81 145 0 118 -3 140 -20 168 l-20 33 28 6 c127 28 166 48 219 108 51 58 73
127 73 230 0 81 -20 147 -55 186 -10 12 -12 25 -5 55 8 36 -1 123 -16 147 -10
16 -73 0 -139 -35 -58 -31 -62 -32 -115 -21 -70 15 -179 15 -250 1 -53 -12
-57 -11 -115 20 -33 17 -76 34 -96 38 -35 7 -37 5 -49 -29 -6 -20 -10 -65 -9
-99 3 -54 -1 -69 -26 -111 -53 -90 -46 -253 15 -350 48 -75 111 -112 241 -140
l26 -6 -24 -49 c-20 -43 -29 -51 -58 -57 -66 -12 -101 2 -152 62 -50 58 -88
84 -122 84 -37 0 -33 -21 11 -63 23 -23 55 -65 70 -94 36 -68 82 -93 173 -93
l65 0 0 -63 c0 -102 -17 -107 -148 -42 -62 31 -111 65 -161 112 l-71 68 0 440
c0 511 -10 463 116 565 137 110 136 110 439 110 235 0 264 -2 302 -20z"/>
<path d="M13589 8359 c-58 -16 -130 -78 -162 -139 -26 -50 -28 -63 -25 -135 3
-71 7 -87 36 -132 35 -55 88 -97 149 -119 30 -10 132 -13 468 -14 408 0 432
-1 462 -20 55 -33 63 -55 70 -191 l6 -124 -493 3 c-562 3 -593 1 -739 -70 -69
-33 -101 -57 -176 -132 -76 -75 -100 -106 -134 -176 -65 -134 -71 -172 -71
-430 0 -254 9 -311 65 -425 69 -138 186 -252 330 -321 120 -58 179 -64 616
-64 l389 0 137 84 137 84 33 -46 c61 -86 152 -128 254 -119 122 11 229 111
245 229 8 58 -44 1595 -56 1680 -22 146 -85 270 -195 383 -79 81 -163 134
-274 173 l-76 27 -480 2 c-287 1 -494 -2 -516 -8z m947 -1445 c46 -22 72 -80
76 -173 l3 -74 -195 -119 -195 -118 -307 2 -306 3 -27 25 c-50 46 -55 68 -55
222 0 163 11 198 71 230 31 17 66 18 467 18 376 0 438 -2 468 -16z"/>
</g>
</svg>
